<svg id="fd493f15-6f12-4f55-99fe-bb961ad1d8d4" data-name="Layer 4" xmlns="http://www.w3.org/2000/svg" xmlns:xlink="http://www.w3.org/1999/xlink" width="13.02in" height="3.78in" viewBox="0 0 468.71 136.01"><defs><symbol id="b1f1cd38-9b1e-44f9-8e21-720247eb0001" data-name="Diode, Regular" viewBox="0 0 6.23 5.43"><line x1="0.3" y1="0.38" x2="5.92" y2="0.38" fill="none" stroke="#393d4f" stroke-miterlimit="14.3" stroke-width="0.75"/><polygon points="0.61 5.06 2.95 0.47 3.18 0.47 5.61 5.06 0.61 5.06 0.61 5.06" fill="#393d4f" stroke="#393d4f" stroke-miterlimit="14.3" stroke-width="0.75"/><polygon points="0.61 5.06 2.95 0.47 3.18 0.47 5.61 5.06 0.61 5.06 0.61 5.06" fill="#393d4f" stroke="#393d4f" stroke-miterlimit="14.3" stroke-width="0.75"/></symbol></defs><g id="f4080a1f-1e26-4265-91fb-e562a02b6fc3" data-name="Layer 2"><path d="M81.35,73.6l.69-7h-3.8L77.08,64h4.37c-2.67-3-3.68-4.84-18.94-6-7.17-4.34-13.93-9.46-24.08-10.73a66.51,66.51,0,0,0-11.13,0c-7.61.88-14.37,4.45-20.46,9H1.14v4.17H4.47V63.6H1.14L0,64.75v7.83l8,3.53a8.43,8.43,0,0,0,15.6.25h37.5a8.43,8.43,0,0,0,15.5,0h5.65V74.07ZM15.82,78.42A5.39,5.39,0,1,1,21.21,73,5.4,5.4,0,0,1,15.82,78.42ZM18.6,58.06A1.7,1.7,0,0,1,17,56.86c-.92-2.94,10.3-7,15.13-7h0v8.19Zm36.75-.68a.93.93,0,0,1-.89.68H35.92l-.77-8.15c7.65.22,13.28,2.48,19.79,6.43A.92.92,0,0,1,55.35,57.38Zm13.47,21A5.39,5.39,0,1,1,74.21,73,5.4,5.4,0,0,1,68.82,78.42Z" fill="#393d4f"/><g id="eacce093-9767-415a-9648-847ef348646c" data-name="Arrow (.75 pt)"><line x1="117.93" y1="42.65" x2="117.3" y2="43.19" fill="none" stroke="#bb505b" stroke-width="0.75"/><polygon points="117.04 40.94 112.97 46.93 119.49 43.78 117.04 40.94" fill="#bb505b"/><line x1="137.69" y1="99.32" x2="138.39" y2="99.78" fill="none" stroke="#bb505b" stroke-width="0.75"/><polygon points="136.29 100.64 143.16 102.94 138.36 97.52 136.29 100.64" fill="#bb505b"/><polyline points="138.13 26.1 88.13 66.76 141.46 101.88" fill="none" stroke="#bb505b" stroke-width="0.75"/><polyline points="143.35 108.43 148.13 108.43 148.13 92.85 151.57 92.85 151.57 108.43 170.35 108.43 170.35 92.85 173.35 92.85 173.35 108.43 179.24 108.43" fill="none" stroke="#393d4f" stroke-width="0.75"/><polyline points="143.35 32.76 148.13 32.76 148.13 17.18 151.57 17.18 151.57 32.76 170.35 32.76 170.35 17.18 173.35 17.18 173.35 32.76 179.24 32.76" fill="none" stroke="#393d4f" stroke-width="0.75"/><g id="bcbf5ca6-f268-484b-8994-6dee594aa836" data-name="Arrow (.75 pt)"><rect x="186.35" y="0.38" width="62.67" height="50" fill="#d8effc" stroke="#393d4f" stroke-width="0.75"/><ellipse cx="186.52" cy="25.38" rx="3.56" ry="13.11" fill="#d1eadf" stroke="#393d4f" stroke-width="0.75"/><rect x="187.68" y="64.53" width="280.65" height="71.11" fill="#d8effc" stroke="#393d4f" stroke-width="0.75"/><ellipse cx="187.77" cy="100.08" rx="3.56" ry="13.11" fill="#d1eadf" stroke="#393d4f" stroke-width="0.75"/><polyline points="296.51 64.43 296.79 24.93 234.11 24.93" fill="none" stroke="#393d4f" stroke-width="0.75"/><polygon points="235.38 23.06 228.39 24.93 235.38 26.8 235.38 23.06" fill="#393d4f"/><line x1="127.02" y1="62.99" x2="137.3" y2="62.99" fill="none" stroke="#393d4f" stroke-width="0.75"/><polygon points="136.02 64.86 143.01 62.99 136.02 61.11 136.02 64.86" fill="#393d4f"/><line x1="387.24" y1="97.52" x2="397.52" y2="97.52" fill="none" stroke="#393d4f" stroke-width="0.75"/><polygon points="396.25 99.39 403.24 97.52 396.25 95.65 396.25 99.39" fill="#393d4f"/><polyline points="193.9 91.54 198.74 95.82 199.85 92.04 205.19 97.38" fill="none" stroke="#393d4f" stroke-width="0.75"/><polygon points="202.96 97.8 209.23 101.42 205.61 95.15 202.96 97.8" fill="#393d4f"/><polyline points="194.13 98.54 198.96 102.82 200.07 99.04 205.41 104.38" fill="none" stroke="#393d4f" stroke-width="0.75"/><polygon points="203.18 104.8 209.45 108.42 205.83 102.15 203.18 104.8" fill="#393d4f"/><polyline points="226.13 98.04 236.9 98.04 236.9 72.48 248.63 72.48" fill="none" stroke="#393d4f" stroke-width="0.75"/><polygon points="247.36 74.36 254.35 72.48 247.36 70.61 247.36 74.36" fill="#393d4f"/><line x1="314.02" y1="97.52" x2="324.3" y2="97.52" fill="none" stroke="#393d4f" stroke-width="0.75"/><polygon points="323.02 99.39 330.01 97.52 323.02 95.65 323.02 99.39" fill="#393d4f"/><line x1="166.13" y1="62.99" x2="155.84" y2="62.99" fill="none" stroke="#393d4f" stroke-width="0.75"/><polygon points="157.12 61.11 150.13 62.99 157.12 64.86 157.12 61.11" fill="#393d4f"/><line x1="143.46" y1="44.04" x2="143.46" y2="74.93" fill="none" stroke="#393d4f" stroke-width="0.75"/><line x1="149.07" y1="51.6" x2="149.07" y2="82.49" fill="none" stroke="#393d4f" stroke-width="0.75"/><use width="6.23" height="5.44" transform="translate(214.45 97.94)" xlink:href="#b1f1cd38-9b1e-44f9-8e21-720247eb0001"/><line x1="217.68" y1="94.65" x2="217.68" y2="109.88" fill="none" stroke="#393d4f" stroke-width="0.75"/><polyline points="214.34 31.53 209.51 27.25 208.39 31.03 203.06 25.69" fill="none" stroke="#393d4f" stroke-width="0.75"/><polygon points="205.28 25.27 199.01 21.65 202.63 27.92 205.28 25.27" fill="#393d4f"/><polyline points="214.12 24.53 209.28 20.25 208.17 24.03 202.83 18.69" fill="none" stroke="#393d4f" stroke-width="0.75"/><polygon points="205.06 18.27 198.79 14.65 202.41 20.92 205.06 18.27" fill="#393d4f"/><use width="6.23" height="5.44" transform="translate(225.13 25.81) rotate(180)" xlink:href="#b1f1cd38-9b1e-44f9-8e21-720247eb0001"/><line x1="221.9" y1="29.43" x2="221.9" y2="14.21" fill="none" stroke="#393d4f" stroke-width="0.75"/><path d="M211,39l-.05,0h-2a0,0,0,0,0,0,0V40a0,0,0,0,0,0,0h1.29l.05,0a.06.06,0,0,1,0,.05v.58a.07.07,0,0,1,0,.06l-.05,0H209a0,0,0,0,0,0,0v1a0,0,0,0,0,0,0h2l.05,0s0,0,0,0v.58s0,0,0,.05,0,0-.05,0h-2.77s0,0,0,0,0,0,0-.05v-4s0,0,0,0a.05.05,0,0,1,0,0h2.77a.05.05,0,0,1,.05,0s0,0,0,0V39S211,39,211,39Z" fill="#393d4f"/><path d="M215.7,39.66a1.17,1.17,0,0,1,.26.8v2s0,0,0,.05,0,0-.05,0h-.7s0,0-.05,0,0,0,0-.05v-1.8a.61.61,0,0,0-.13-.39.44.44,0,0,0-.34-.14.48.48,0,0,0-.34.14.61.61,0,0,0-.13.39v1.8a.08.08,0,0,1,0,.05s0,0,0,0h-.7a.06.06,0,0,1,0,0,.08.08,0,0,1,0-.05v-1.8a.52.52,0,0,0-.13-.38.43.43,0,0,0-.34-.15.48.48,0,0,0-.32.11.49.49,0,0,0-.16.32v1.9s0,0,0,.05,0,0-.05,0h-.7s0,0-.05,0,0,0,0-.05V39.5a.06.06,0,0,1,0,0l.05,0h.7l.05,0a.06.06,0,0,1,0,0v.26h0a.84.84,0,0,1,.76-.37,1,1,0,0,1,.53.13.79.79,0,0,1,.34.36,0,0,0,0,0,0,0,.86.86,0,0,1,.36-.37,1.07,1.07,0,0,1,.51-.12A1,1,0,0,1,215.7,39.66Z" fill="#393d4f"/><path d="M216.67,39a.47.47,0,0,1-.13-.34.44.44,0,0,1,.13-.34.46.46,0,0,1,.34-.14.48.48,0,0,1,.48.48.48.48,0,0,1-.14.34.45.45,0,0,1-.34.13A.47.47,0,0,1,216.67,39Zm-.07,3.54a.08.08,0,0,1,0-.05V39.5a.08.08,0,0,1,0,0s0,0,.05,0h.7a.09.09,0,0,1,.06,0,.08.08,0,0,1,0,0v2.94a.08.08,0,0,1,0,.05.07.07,0,0,1-.06,0h-.7A.06.06,0,0,1,216.6,42.49Z" fill="#393d4f"/><path d="M219.84,40.09l-.06,0h-.57a0,0,0,0,0,0,0v1.27a.46.46,0,0,0,.08.29.3.3,0,0,0,.26.1h.2l.05,0s0,0,0,0v.57c0,.05,0,.07-.07.08h-.36a1.39,1.39,0,0,1-.75-.16.74.74,0,0,1-.25-.62V40.14a0,0,0,0,0,0,0H218l-.05,0s0,0,0-.05V39.5s0,0,0,0l.05,0h.34a0,0,0,0,0,0,0v-.71a.08.08,0,0,1,0,0s0,0,.05,0h.68s0,0,0,0a.08.08,0,0,1,0,0v.71a0,0,0,0,0,0,0h.57l.06,0s0,0,0,0V40S219.85,40.07,219.84,40.09Z" fill="#393d4f"/><path d="M222.12,40.09l-.06,0h-.57a0,0,0,0,0,0,0v1.27a.46.46,0,0,0,.08.29.3.3,0,0,0,.26.1h.2l.05,0s0,0,0,0v.57c0,.05,0,.07-.07.08h-.36a1.39,1.39,0,0,1-.75-.16.74.74,0,0,1-.25-.62V40.14a0,0,0,0,0,0,0h-.34l-.05,0s0,0,0-.05V39.5s0,0,0,0l.05,0h.34a0,0,0,0,0,0,0v-.71a.08.08,0,0,1,0,0,.07.07,0,0,1,.06,0h.67s0,0,.05,0a.08.08,0,0,1,0,0v.71a0,0,0,0,0,0,0h.57l.06,0s0,0,0,0V40S222.13,40.07,222.12,40.09Z" fill="#393d4f"/><path d="M225.36,41.16c0,.05,0,.08-.08.08h-1.85s0,0,0,0a2.17,2.17,0,0,0,.07.24.63.63,0,0,0,.63.33.73.73,0,0,0,.61-.31s0,0,.06,0l0,0,.43.42a.09.09,0,0,1,0,.06l0,0a1.48,1.48,0,0,1-.51.38,1.73,1.73,0,0,1-.69.13,1.61,1.61,0,0,1-.87-.23,1.29,1.29,0,0,1-.51-.66,1.92,1.92,0,0,1-.13-.78,1.68,1.68,0,0,1,.09-.58,1.29,1.29,0,0,1,.48-.68,1.35,1.35,0,0,1,.82-.25,1.33,1.33,0,0,1,1,.34,1.58,1.58,0,0,1,.45.93A2.83,2.83,0,0,1,225.36,41.16Zm-1.92-.7a.9.9,0,0,0,0,.19,0,0,0,0,0,0,0h1s0,0,0,0,0-.17,0-.16a.51.51,0,0,0-.52-.38A.48.48,0,0,0,223.44,40.46Z" fill="#393d4f"/><path d="M227.76,39.47a.1.1,0,0,1,0,.09l-.13.69s0,.06-.08,0a.66.66,0,0,0-.21,0h-.14a.6.6,0,0,0-.36.16.48.48,0,0,0-.15.37v1.64a.08.08,0,0,1,0,.05.06.06,0,0,1-.05,0H226a.06.06,0,0,1,0,0,.08.08,0,0,1,0-.05V39.5s0,0,0,0l0,0h.71l.05,0s0,0,0,0v.23s0,0,0,0h0a.75.75,0,0,1,.66-.36A.66.66,0,0,1,227.76,39.47Z" fill="#393d4f"/><path d="M205.91,118.1s0,0,0,0V114a.08.08,0,0,1,0,0l.05,0h1.5a1.77,1.77,0,0,1,.79.16,1.21,1.21,0,0,1,.53.44,1.27,1.27,0,0,1,.18.67v1.66a1.21,1.21,0,0,1-.18.66,1.3,1.3,0,0,1-.53.45,1.77,1.77,0,0,1-.79.16H206Zm.86-.71h.72a.58.58,0,0,0,.45-.18.74.74,0,0,0,.18-.5v-1.38a.72.72,0,0,0-.17-.5.63.63,0,0,0-.46-.19h-.72a0,0,0,0,0,0,0v2.69A0,0,0,0,0,206.77,117.39Z" fill="#393d4f"/><path d="M212.3,116.77s0,.07-.08.07h-1.85s0,0,0,0a2.17,2.17,0,0,0,.07.24.64.64,0,0,0,.64.34.73.73,0,0,0,.6-.32.09.09,0,0,1,.06,0l0,0,.43.43a.09.09,0,0,1,0,0,.17.17,0,0,1,0,.05,1.48,1.48,0,0,1-.51.38,1.74,1.74,0,0,1-.69.14,1.53,1.53,0,0,1-.87-.24,1.23,1.23,0,0,1-.51-.65,1.94,1.94,0,0,1-.13-.79,1.72,1.72,0,0,1,.09-.58,1.33,1.33,0,0,1,.48-.68,1.35,1.35,0,0,1,.82-.25,1.33,1.33,0,0,1,1,.35,1.52,1.52,0,0,1,.45.93A2.75,2.75,0,0,1,212.3,116.77Zm-1.92-.7a.78.78,0,0,0,0,.19,0,0,0,0,0,0,0h1s0,0,0,0l0-.17a.56.56,0,0,0-.19-.28.59.59,0,0,0-.33-.1A.49.49,0,0,0,210.38,116.07Z" fill="#393d4f"/><path d="M214.5,115.69l-.05,0h-.58a0,0,0,0,0,0,0V117a.49.49,0,0,0,.08.3.34.34,0,0,0,.26.09h.2a.05.05,0,0,1,.05,0s0,0,0,0v.57a.06.06,0,0,1-.07.07l-.36,0a1.33,1.33,0,0,1-.74-.17.69.69,0,0,1-.25-.62v-1.61a0,0,0,0,0,0,0h-.35l-.05,0a.08.08,0,0,1,0,0v-.53a.08.08,0,0,1,0,0s0,0,.05,0H213a0,0,0,0,0,0,0v-.71s0,0,0-.05l0,0h.67l0,0a.08.08,0,0,1,0,.05V115a0,0,0,0,0,0,0h.58s0,0,.05,0a.08.08,0,0,1,0,0v.53A.08.08,0,0,1,214.5,115.69Z" fill="#393d4f"/><path d="M217.74,116.77s0,.07-.08.07h-1.85s0,0,0,0a1.05,1.05,0,0,0,.06.24.65.65,0,0,0,.64.34.72.72,0,0,0,.6-.32.09.09,0,0,1,.06,0l0,0,.43.43a.09.09,0,0,1,0,0,.17.17,0,0,1,0,.05,1.32,1.32,0,0,1-.51.38,1.74,1.74,0,0,1-.69.14,1.53,1.53,0,0,1-.87-.24,1.23,1.23,0,0,1-.51-.65,1.94,1.94,0,0,1-.13-.79,1.72,1.72,0,0,1,.09-.58,1.35,1.35,0,0,1,.49-.68,1.32,1.32,0,0,1,.81-.25,1.36,1.36,0,0,1,1,.35,1.51,1.51,0,0,1,.44.93A2.75,2.75,0,0,1,217.74,116.77Zm-1.92-.7c0,.05,0,.11,0,.19a0,0,0,0,0,0,0h1s0,0,0,0l0-.17a.51.51,0,0,0-.19-.28.59.59,0,0,0-.33-.1A.49.49,0,0,0,215.82,116.07Z" fill="#393d4f"/><path d="M218.79,117.93a1.33,1.33,0,0,1-.5-.66,2.17,2.17,0,0,1-.1-.71,2.11,2.11,0,0,1,.1-.7,1.22,1.22,0,0,1,.5-.64,1.42,1.42,0,0,1,.83-.23,1.48,1.48,0,0,1,.84.24,1.13,1.13,0,0,1,.49.6.79.79,0,0,1,0,.22h0a.07.07,0,0,1-.06.07l-.69.1h0a.07.07,0,0,1-.07-.06l0-.1a.51.51,0,0,0-.18-.26.65.65,0,0,0-.35-.1.52.52,0,0,0-.51.36,1.63,1.63,0,0,0-.06.49,1.66,1.66,0,0,0,.06.5.51.51,0,0,0,.51.38.52.52,0,0,0,.33-.1.5.5,0,0,0,.2-.27v0s0,0,0,0,0-.06.08-.06l.69.11a.07.07,0,0,1,.06.07,1.05,1.05,0,0,1,0,.18,1.14,1.14,0,0,1-.49.63,1.55,1.55,0,0,1-.84.23A1.42,1.42,0,0,1,218.79,117.93Z" fill="#393d4f"/><path d="M223.23,115.69l0,0h-.57a0,0,0,0,0,0,0V117a.43.43,0,0,0,.08.3.33.33,0,0,0,.26.09h.2s0,0,0,0a.08.08,0,0,1,0,0v.57a.06.06,0,0,1-.07.07l-.36,0A1.39,1.39,0,0,1,222,118a.74.74,0,0,1-.25-.62v-1.61a0,0,0,0,0,0,0h-.34l0,0a.08.08,0,0,1,0,0v-.53a.08.08,0,0,1,0,0,.05.05,0,0,1,0,0h.34a0,0,0,0,0,0,0v-.71a.08.08,0,0,1,0-.05l.05,0h.68l.05,0a.08.08,0,0,1,0,.05V115a0,0,0,0,0,0,0h.57a.12.12,0,0,1,.08.08v.53A.05.05,0,0,1,223.23,115.69Z" fill="#393d4f"/><path d="M224.22,117.9a1.28,1.28,0,0,1-.49-.72,2,2,0,0,1-.08-.61,2.12,2.12,0,0,1,.08-.64,1.3,1.3,0,0,1,.5-.69,1.45,1.45,0,0,1,.86-.25,1.37,1.37,0,0,1,.84.25,1.26,1.26,0,0,1,.49.69,1.89,1.89,0,0,1,.1.63,2.29,2.29,0,0,1-.08.6,1.34,1.34,0,0,1-1.35,1A1.41,1.41,0,0,1,224.22,117.9Zm1.2-.58a.68.68,0,0,0,.2-.33,1.86,1.86,0,0,0,0-.42,1.75,1.75,0,0,0,0-.43.62.62,0,0,0-.2-.31.52.52,0,0,0-.34-.12.49.49,0,0,0-.34.12.61.61,0,0,0-.19.31,1.23,1.23,0,0,0-.05.43,1.56,1.56,0,0,0,0,.42.68.68,0,0,0,.2.33.53.53,0,0,0,.35.12A.48.48,0,0,0,225.42,117.32Z" fill="#393d4f"/><path d="M228.94,115.08s.05,0,0,.09l-.13.68c0,.05,0,.06-.08,0a.66.66,0,0,0-.21,0h-.13a.66.66,0,0,0-.37.16.5.5,0,0,0-.15.38v1.64a.06.06,0,0,1,0,0l0,0h-.7l0,0a.06.06,0,0,1,0,0v-2.94s0,0,0,0a.05.05,0,0,1,0,0h.7a.05.05,0,0,1,0,0s0,0,0,0v.22s0,0,0,0,0,0,0,0a.78.78,0,0,1,.66-.36A.55.55,0,0,1,228.94,115.08Z" fill="#393d4f"/><path d="M257.92,73.22a1.2,1.2,0,0,1-.55-.43,1.15,1.15,0,0,1-.2-.67V72a.08.08,0,0,1,0,0l.05,0h.69l.05,0a.08.08,0,0,1,0,0v.09a.49.49,0,0,0,.22.41,1,1,0,0,0,.6.16.74.74,0,0,0,.48-.13.43.43,0,0,0,.15-.34.36.36,0,0,0-.09-.24.89.89,0,0,0-.27-.17l-.52-.21a5.23,5.23,0,0,1-.68-.28,1.49,1.49,0,0,1-.47-.39,1,1,0,0,1-.19-.62,1,1,0,0,1,.19-.63,1.1,1.1,0,0,1,.51-.41,1.86,1.86,0,0,1,.77-.15,2.09,2.09,0,0,1,.81.16,1.34,1.34,0,0,1,.56.46,1.18,1.18,0,0,1,.2.67v.09a.08.08,0,0,1,0,.05.06.06,0,0,1-.05,0h-.69a.07.07,0,0,1-.06,0,.08.08,0,0,1,0-.05v0a.58.58,0,0,0-.2-.43.9.9,0,0,0-.57-.17.7.7,0,0,0-.44.12.38.38,0,0,0-.16.33.37.37,0,0,0,.09.25.75.75,0,0,0,.28.18,5.39,5.39,0,0,0,.57.22c.28.11.5.2.66.28a1.34,1.34,0,0,1,.44.35,1,1,0,0,1,.2.62,1.06,1.06,0,0,1-.42.89,1.74,1.74,0,0,1-1.12.33A2,2,0,0,1,257.92,73.22Z" fill="#393d4f"/><path d="M262.59,70.9a.06.06,0,0,1,0,0H262a0,0,0,0,0,0,0v1.28a.46.46,0,0,0,.08.29.33.33,0,0,0,.26.1h.2s0,0,0,0a.08.08,0,0,1,0,0v.57a.08.08,0,0,1-.07.08h-.36a1.33,1.33,0,0,1-.74-.17.7.7,0,0,1-.26-.62V71a0,0,0,0,0,0,0h-.34s0,0-.05,0a.08.08,0,0,1,0-.05v-.53a.08.08,0,0,1,0,0s0,0,.05,0h.34a0,0,0,0,0,0,0V69.5s0,0,0,0l.05,0h.67l.05,0s0,0,0,0v.72a0,0,0,0,0,0,0h.58a.06.06,0,0,1,0,0,.08.08,0,0,1,0,0v.53A.08.08,0,0,1,262.59,70.9Z" fill="#393d4f"/><path d="M263.57,73.11a1.28,1.28,0,0,1-.49-.72,2.31,2.31,0,0,1-.08-.61,2.41,2.41,0,0,1,.08-.63,1.28,1.28,0,0,1,.5-.7,1.45,1.45,0,0,1,.86-.25,1.37,1.37,0,0,1,.84.25,1.27,1.27,0,0,1,.5.69,2.18,2.18,0,0,1,.09.63,2.37,2.37,0,0,1-.08.61,1.34,1.34,0,0,1-.49.73,1.52,1.52,0,0,1-1.73,0Zm1.2-.58a.62.62,0,0,0,.2-.33,1.86,1.86,0,0,0,0-.42,1.61,1.61,0,0,0,0-.42.61.61,0,0,0-.2-.32.54.54,0,0,0-.68,0,.6.6,0,0,0-.19.32,1.4,1.4,0,0,0,0,.42,1.56,1.56,0,0,0,0,.42.68.68,0,0,0,.2.33.53.53,0,0,0,.35.12A.48.48,0,0,0,264.77,72.53Z" fill="#393d4f"/><path d="M269.28,71.79a2.47,2.47,0,0,1-.11.75,1.32,1.32,0,0,1-.44.61,1.18,1.18,0,0,1-.73.23.83.83,0,0,1-.68-.3s0,0,0,0,0,0,0,0v1.28a.08.08,0,0,1,0,0s0,0,0,0h-.71s0,0-.05,0a.08.08,0,0,1,0,0V70.32a.08.08,0,0,1,0,0,.06.06,0,0,1,.05,0h.71a.06.06,0,0,1,0,0,.08.08,0,0,1,0,0v.2s0,0,0,0,0,0,0,0a.83.83,0,0,1,.7-.33,1.13,1.13,0,0,1,.72.23,1.28,1.28,0,0,1,.43.64A2.27,2.27,0,0,1,269.28,71.79Zm-.88,0a1.28,1.28,0,0,0-.12-.6.47.47,0,0,0-.45-.26.45.45,0,0,0-.41.26,1.29,1.29,0,0,0-.13.61,1.19,1.19,0,0,0,.14.62.43.43,0,0,0,.4.24.48.48,0,0,0,.42-.23A1.19,1.19,0,0,0,268.4,71.78Z" fill="#393d4f"/><path d="M170.6,66.12a.08.08,0,0,1,0-.05v-.6a.15.15,0,0,1,0-.09L172.08,62a.1.1,0,0,1,.09-.06h.49a.08.08,0,0,1,.08.06l1.5,3.38a.51.51,0,0,1,0,.09v.6a.05.05,0,0,1,0,.05s0,0,0,0h-3.53S170.61,66.14,170.6,66.12Zm.82-.72h2s0,0,0,0l-1-2.31s0,0,0,0l-1,2.31A0,0,0,0,0,171.42,65.4Z" fill="#393d4f"/><path d="M176.46,63.72l-.05,0h-.58a0,0,0,0,0,0,0V65a.4.4,0,0,0,.09.29.3.3,0,0,0,.26.1h.19l0,0s0,0,0,0v.57c0,.05,0,.07-.08.08H176a1.33,1.33,0,0,1-.74-.16.71.71,0,0,1-.25-.62V63.77a0,0,0,0,0,0,0h-.34l-.06,0s0,0,0,0v-.54s0,0,0-.05l.06,0H175a0,0,0,0,0,0,0v-.71s0,0,0,0a.05.05,0,0,1,.05,0h.67a.05.05,0,0,1,.05,0s0,0,0,0V63a0,0,0,0,0,0,0h.58l.05,0a.06.06,0,0,1,0,.05v.54A.06.06,0,0,1,176.46,63.72Z" fill="#393d4f"/><path d="M292,73.22a1.23,1.23,0,0,1-.56-.43,1.15,1.15,0,0,1-.19-.67V72s0,0,0,0l.05,0H292l.06,0a.08.08,0,0,1,0,0v.09a.49.49,0,0,0,.22.41,1,1,0,0,0,.6.16.69.69,0,0,0,.47-.13.41.41,0,0,0,.16-.34.33.33,0,0,0-.1-.24.73.73,0,0,0-.26-.17l-.52-.21a6.12,6.12,0,0,1-.69-.28,1.45,1.45,0,0,1-.46-.39,1,1,0,0,1-.19-.62,1.11,1.11,0,0,1,.18-.63,1.18,1.18,0,0,1,.52-.41,1.81,1.81,0,0,1,.76-.15,2,2,0,0,1,.81.16,1.28,1.28,0,0,1,.56.46,1.11,1.11,0,0,1,.2.67v.09s0,0,0,.05,0,0-.05,0h-.69s0,0-.05,0a.08.08,0,0,1,0-.05v0a.56.56,0,0,0-.21-.43.87.87,0,0,0-.56-.17.75.75,0,0,0-.45.12.4.4,0,0,0-.15.33.37.37,0,0,0,.09.25.71.71,0,0,0,.27.18l.57.22c.29.11.51.2.67.28a1.45,1.45,0,0,1,.44.35,1,1,0,0,1,.19.62,1.06,1.06,0,0,1-.41.89,1.76,1.76,0,0,1-1.12.33A2,2,0,0,1,292,73.22Z" fill="#393d4f"/><path d="M296.7,70.9s0,0-.05,0h-.57a0,0,0,0,0,0,0v1.28a.4.4,0,0,0,.08.29.33.33,0,0,0,.26.1h.2a.06.06,0,0,1,.05,0,.08.08,0,0,1,0,0v.57a.08.08,0,0,1-.07.08h-.36a1.36,1.36,0,0,1-.75-.17.7.7,0,0,1-.25-.62V71a0,0,0,0,0,0,0h-.34s0,0-.05,0,0,0,0-.05v-.53s0,0,0,0,0,0,.05,0h.34a0,0,0,0,0,0,0V69.5s0,0,0,0l.05,0H296l0,0s0,0,0,0v.72a0,0,0,0,0,0,0h.57s0,0,.05,0,0,0,0,0v.53S296.72,70.89,296.7,70.9Z" fill="#393d4f"/><path d="M299.16,70.33a1.29,1.29,0,0,1,.48.37.9.9,0,0,1,.17.52v2s0,0,0,0l-.05,0H299l0,0s0,0,0,0v-.2s0,0,0,0,0,0,0,0a1,1,0,0,1-.81.33,1.19,1.19,0,0,1-.76-.23.81.81,0,0,1-.29-.67.86.86,0,0,1,.33-.72,1.44,1.44,0,0,1,.92-.25h.61a0,0,0,0,0,0,0v-.14a.38.38,0,0,0-.12-.3.49.49,0,0,0-.36-.12.74.74,0,0,0-.31.07.33.33,0,0,0-.16.19.07.07,0,0,1-.07.06l-.73-.1s-.07,0-.07,0a.84.84,0,0,1,.21-.46,1.12,1.12,0,0,1,.46-.32,1.93,1.93,0,0,1,.65-.11A1.71,1.71,0,0,1,299.16,70.33Zm-.38,2.28a.42.42,0,0,0,.18-.35V72a0,0,0,0,0,0,0h-.43a.73.73,0,0,0-.42.1.35.35,0,0,0-.16.29.32.32,0,0,0,.12.26.47.47,0,0,0,.3.09A.7.7,0,0,0,298.78,72.61Z" fill="#393d4f"/><path d="M302.28,70.29s0,0,0,.09l-.13.68s0,.06-.08,0a.66.66,0,0,0-.21,0l-.14,0a.54.54,0,0,0-.36.16.47.47,0,0,0-.15.37v1.64s0,0,0,0l-.05,0h-.71l-.05,0s0,0,0,0V70.32a.08.08,0,0,1,0,0,.06.06,0,0,1,.05,0h.71a.06.06,0,0,1,.05,0,.08.08,0,0,1,0,0v.23s0,0,0,0h0a.75.75,0,0,1,.66-.36A.57.57,0,0,1,302.28,70.29Z" fill="#393d4f"/><path d="M304.48,70.9s0,0-.05,0h-.57a0,0,0,0,0,0,0v1.28a.4.4,0,0,0,.08.29.33.33,0,0,0,.26.1h.2a.06.06,0,0,1,.05,0,.08.08,0,0,1,0,0v.57a.08.08,0,0,1-.07.08H304a1.39,1.39,0,0,1-.75-.17.72.72,0,0,1-.25-.62V71a0,0,0,0,0,0,0h-.34s0,0-.05,0a.08.08,0,0,1,0-.05v-.53a.08.08,0,0,1,0,0s0,0,.05,0H303a0,0,0,0,0,0,0V69.5s0,0,0,0l.05,0h.68l.05,0s0,0,0,0v.72a0,0,0,0,0,0,0h.57s0,0,.05,0a.05.05,0,0,1,0,0v.53A.05.05,0,0,1,304.48,70.9Z" fill="#393d4f"/><path d="M348.24,122.94l-.18-.59s0,0,0,0h-1.48s0,0,0,0l-.17.59a.08.08,0,0,1-.08.06h-.76l-.05,0a.06.06,0,0,1,0-.07l1.3-4a.07.07,0,0,1,.07-.06h.95a.07.07,0,0,1,.07.06l1.3,4s0,0,0,0,0,.06-.07.06h-.76A.08.08,0,0,1,348.24,122.94Zm-1.48-1.27h1.06s0,0,0,0l-.54-1.79v0a0,0,0,0,0,0,0l-.53,1.79S346.74,121.67,346.76,121.67Z" fill="#393d4f"/><path d="M349.64,123s0,0,0,0v-4.06a.08.08,0,0,1,0-.05l.05,0h.7l.05,0a.05.05,0,0,1,0,.05v4.06s0,0,0,0l-.05,0h-.7Z" fill="#393d4f"/><path d="M353,119.94a.05.05,0,0,1,.05,0h.7a.05.05,0,0,1,.05,0s0,0,0,0v2.73a1.29,1.29,0,0,1-.45,1.12,1.87,1.87,0,0,1-1.17.34l-.46,0s-.06,0-.06-.08l0-.62s0-.07.08-.06l.4,0a.92.92,0,0,0,.59-.16.67.67,0,0,0,.21-.54s0,0,0,0,0,0,0,0a.83.83,0,0,1-.66.25,1.39,1.39,0,0,1-.72-.19,1.06,1.06,0,0,1-.47-.61,2.32,2.32,0,0,1-.09-.71,2.26,2.26,0,0,1,.11-.76,1.23,1.23,0,0,1,.43-.59,1.12,1.12,0,0,1,.69-.22.91.91,0,0,1,.71.27h0a0,0,0,0,0,0,0V120A.08.08,0,0,1,353,119.94Zm0,1.49c0-.12,0-.22,0-.29a1.33,1.33,0,0,0,0-.19.48.48,0,0,0-.18-.26.45.45,0,0,0-.31-.1.44.44,0,0,0-.3.1.55.55,0,0,0-.19.26,1.11,1.11,0,0,0-.08.49,1.15,1.15,0,0,0,.07.48.55.55,0,0,0,.83.26.52.52,0,0,0,.17-.26A2,2,0,0,0,353,121.43Z" fill="#393d4f"/><path d="M354.92,122.78a1.24,1.24,0,0,1-.49-.72,2,2,0,0,1-.09-.61,2.11,2.11,0,0,1,.09-.64,1.28,1.28,0,0,1,.49-.69,1.46,1.46,0,0,1,.87-.25,1.37,1.37,0,0,1,.84.25,1.31,1.31,0,0,1,.49.69,2.19,2.19,0,0,1,.1.63,1.93,1.93,0,0,1-.09.6,1.33,1.33,0,0,1-.49.74,1.38,1.38,0,0,1-.86.27A1.4,1.4,0,0,1,354.92,122.78Zm1.2-.58a.68.68,0,0,0,.2-.33,1.87,1.87,0,0,0,0-.42,1.8,1.8,0,0,0,0-.43.71.71,0,0,0-.21-.31.48.48,0,0,0-.33-.12.49.49,0,0,0-.34.12.62.62,0,0,0-.2.31,1.53,1.53,0,0,0-.05.43,1.5,1.5,0,0,0,.05.42.62.62,0,0,0,.2.33.54.54,0,0,0,.68,0Z" fill="#393d4f"/><path d="M359.64,120s0,0,0,.09l-.13.68s0,.06-.08,0a.66.66,0,0,0-.21,0h-.14a.66.66,0,0,0-.36.16.5.5,0,0,0-.15.38v1.64s0,0,0,0l0,0h-.71l-.05,0s0,0,0,0V120a.08.08,0,0,1,0,0s0,0,.05,0h.71s0,0,0,0a.08.08,0,0,1,0,0v.22s0,0,0,0h0a.75.75,0,0,1,.66-.36A.57.57,0,0,1,359.64,120Z" fill="#393d4f"/><path d="M360.18,119.43a.46.46,0,0,1-.14-.34.49.49,0,0,1,.13-.34.48.48,0,0,1,.35-.13.45.45,0,0,1,.47.47.46.46,0,0,1-.14.34.45.45,0,0,1-.33.14A.46.46,0,0,1,360.18,119.43ZM360.1,123s0,0,0,0v-3a.08.08,0,0,1,0,0,.07.07,0,0,1,.06,0h.7a.06.06,0,0,1,.05,0,.08.08,0,0,1,0,0v3s0,0,0,0l-.05,0h-.7Z" fill="#393d4f"/><path d="M363.34,120.57l0,0h-.58a0,0,0,0,0,0,0v1.27a.49.49,0,0,0,.08.3.34.34,0,0,0,.26.09h.2a.05.05,0,0,1,0,0s0,0,0,0v.57a.06.06,0,0,1-.07.07l-.36,0a1.33,1.33,0,0,1-.74-.17.69.69,0,0,1-.25-.62v-1.61a0,0,0,0,0,0,0h-.35l-.05,0a.08.08,0,0,1,0,0V120a.08.08,0,0,1,0,0s0,0,.05,0h.35a0,0,0,0,0,0,0v-.71s0,0,0,0l.05,0h.67l.05,0a.08.08,0,0,1,0,0v.71a0,0,0,0,0,0,0h.58s0,0,0,0a.08.08,0,0,1,0,0v.53A.08.08,0,0,1,363.34,120.57Z" fill="#393d4f"/><path d="M366.25,120.16a1.07,1.07,0,0,1,.3.8v2s0,0,0,0l0,0h-.7l0,0s0,0,0,0v-1.8a.56.56,0,0,0-.14-.39.43.43,0,0,0-.35-.15.46.46,0,0,0-.36.15.56.56,0,0,0-.13.39v1.8s0,0,0,0l-.05,0h-.7l-.05,0s0,0,0,0v-4.06a.08.08,0,0,1,0-.05l.05,0h.7l.05,0a.05.05,0,0,1,0,.05v1.33s0,0,0,0h0a.82.82,0,0,1,.73-.34A1,1,0,0,1,366.25,120.16Z" fill="#393d4f"/><path d="M371.3,120.15a1.1,1.1,0,0,1,.27.79v2s0,0,0,0l-.05,0h-.71l-.05,0s0,0,0,0v-1.8a.57.57,0,0,0-.12-.39.46.46,0,0,0-.68,0,.52.52,0,0,0-.13.38v1.81s0,0,0,0l-.06,0H369l0,0a.06.06,0,0,1,0,0v-1.8a.56.56,0,0,0-.14-.39.42.42,0,0,0-.34-.15.45.45,0,0,0-.32.12.42.42,0,0,0-.15.31v1.91s0,0,0,0l-.05,0h-.71l-.05,0s0,0,0,0V120a.08.08,0,0,1,0,0s0,0,.05,0h.71s0,0,.05,0a.08.08,0,0,1,0,0v.23s0,0,0,0,0,0,0,0a.87.87,0,0,1,.77-.36,1.08,1.08,0,0,1,.52.12.93.93,0,0,1,.35.36s0,0,0,0a.93.93,0,0,1,.35-.36,1.1,1.1,0,0,1,.51-.12A.94.94,0,0,1,371.3,120.15Z" fill="#393d4f"/><path d="M280.62,118.82s0,0,0,.05v.59s0,0,0,.05l-.05,0H279.5a0,0,0,0,0,0,0v3.37s0,0,0,0a.11.11,0,0,1-.06,0h-.7l-.05,0s0,0,0,0v-3.37a0,0,0,0,0,0,0h-1l-.05,0s0,0,0-.05v-.59s0,0,0-.05l.05,0h3Z" fill="#393d4f"/><path d="M281.21,119.43a.48.48,0,0,1,0-.68.44.44,0,0,1,.34-.13.48.48,0,0,1,.34.81.48.48,0,0,1-.34.14A.46.46,0,0,1,281.21,119.43Zm-.07,3.55a.06.06,0,0,1,0,0v-3s0,0,0,0,0,0,.05,0h.7s0,0,.05,0,0,0,0,0v3a.06.06,0,0,1,0,0l-.05,0h-.7Z" fill="#393d4f"/><path d="M286.77,120.15a1.1,1.1,0,0,1,.27.79v2s0,0,0,0l0,0h-.7l-.06,0s0,0,0,0v-1.8a.57.57,0,0,0-.12-.39.46.46,0,0,0-.68,0,.52.52,0,0,0-.13.38v1.81s0,0,0,0l-.06,0h-.69l-.05,0a.06.06,0,0,1,0,0v-1.8a.56.56,0,0,0-.14-.39.42.42,0,0,0-.34-.15.45.45,0,0,0-.32.12.46.46,0,0,0-.15.31v1.91s0,0,0,0l-.05,0h-.71l-.05,0s0,0,0,0V120a.08.08,0,0,1,0,0l.05,0h.71s0,0,.05,0a.08.08,0,0,1,0,0v.23s0,0,0,0,0,0,0,0a.84.84,0,0,1,.76-.36,1.08,1.08,0,0,1,.52.12.93.93,0,0,1,.35.36s0,0,0,0a.89.89,0,0,1,.36-.36,1,1,0,0,1,.5-.12A.94.94,0,0,1,286.77,120.15Z" fill="#393d4f"/><path d="M290.37,121.65s0,.07-.08.07h-1.85s0,0,0,0a2.17,2.17,0,0,0,.07.24.63.63,0,0,0,.63.34.74.74,0,0,0,.61-.32l0,0,.05,0,.43.43a.09.09,0,0,1,0,0l0,0a1.48,1.48,0,0,1-.51.38,1.74,1.74,0,0,1-.69.14,1.53,1.53,0,0,1-.87-.24,1.23,1.23,0,0,1-.51-.65,1.94,1.94,0,0,1-.13-.79,1.72,1.72,0,0,1,.09-.58,1.33,1.33,0,0,1,.48-.68,1.35,1.35,0,0,1,.82-.25,1.33,1.33,0,0,1,1,.35,1.52,1.52,0,0,1,.45.93A2.75,2.75,0,0,1,290.37,121.65Zm-1.92-.7a.78.78,0,0,0,0,.19,0,0,0,0,0,0,0h1s0,0,0,0l0-.17a.56.56,0,0,0-.19-.28.52.52,0,0,0-.33-.1A.48.48,0,0,0,288.45,121Z" fill="#393d4f"/><path d="M420.91,123s0,0,0,0v-4.06a.08.08,0,0,1,0-.05l0,0h1.5a1.77,1.77,0,0,1,.79.16,1.21,1.21,0,0,1,.53.44,1.27,1.27,0,0,1,.18.67v1.66a1.21,1.21,0,0,1-.18.66,1.3,1.3,0,0,1-.53.45,1.77,1.77,0,0,1-.79.16H421Zm.86-.71h.72a.58.58,0,0,0,.45-.18.8.8,0,0,0,.18-.5v-1.38a.72.72,0,0,0-.17-.5.63.63,0,0,0-.46-.19h-.72a0,0,0,0,0,0,0v2.69A0,0,0,0,0,421.77,122.27Z" fill="#393d4f"/><path d="M424.66,119.43a.48.48,0,0,1,.68-.68.48.48,0,0,1-.68.68Zm-.07,3.55s0,0,0,0v-3a.08.08,0,0,1,0,0s0,0,.05,0h.7s0,0,.05,0,0,0,0,0v3a.06.06,0,0,1,0,0l-.05,0h-.7Z" fill="#393d4f"/><path d="M426.6,122.93a1.15,1.15,0,0,1-.46-.32.73.73,0,0,1-.17-.46v-.06a.08.08,0,0,1,0,0,.07.07,0,0,1,.06,0h.66a.05.05,0,0,1,.05,0s0,0,0,0h0a.28.28,0,0,0,.15.23.7.7,0,0,0,.37.09.64.64,0,0,0,.33-.08.24.24,0,0,0,.13-.2.17.17,0,0,0-.11-.16,1.64,1.64,0,0,0-.36-.12,2.89,2.89,0,0,1-.44-.14,1.67,1.67,0,0,1-.61-.32.69.69,0,0,1-.23-.55.85.85,0,0,1,.34-.71,1.52,1.52,0,0,1,.92-.26,1.57,1.57,0,0,1,.67.13,1,1,0,0,1,.45.34.9.9,0,0,1,.16.5.14.14,0,0,1,0,.06l0,0h-.65l-.05,0a.14.14,0,0,1,0-.06.26.26,0,0,0-.13-.22.64.64,0,0,0-.36-.09.81.81,0,0,0-.33.07.23.23,0,0,0-.12.2.19.19,0,0,0,.12.18,2.51,2.51,0,0,0,.41.13l.15,0,.18,0a1.82,1.82,0,0,1,.67.32.69.69,0,0,1,.25.58.82.82,0,0,1-.35.69,1.56,1.56,0,0,1-.94.25A2.16,2.16,0,0,1,426.6,122.93Z" fill="#393d4f"/><path d="M430.83,120.57l-.05,0h-.58a0,0,0,0,0,0,0v1.27a.49.49,0,0,0,.08.3.35.35,0,0,0,.27.09h.19a.05.05,0,0,1,.05,0s0,0,0,0v.57a.06.06,0,0,1-.07.07l-.36,0a1.33,1.33,0,0,1-.74-.17.69.69,0,0,1-.25-.62v-1.61a0,0,0,0,0,0,0H429l-.05,0a.08.08,0,0,1,0,0V120a.08.08,0,0,1,0,0l.05,0h.35a0,0,0,0,0,0,0v-.71s0,0,0,0l.05,0h.67l0,0s0,0,0,0v.71a0,0,0,0,0,0,0h.58a.05.05,0,0,1,.05,0,.08.08,0,0,1,0,0v.53A.08.08,0,0,1,430.83,120.57Z" fill="#393d4f"/><path d="M433.29,120a1.1,1.1,0,0,1,.47.37.83.83,0,0,1,.17.52v2a.06.06,0,0,1,0,0l-.05,0h-.7l-.05,0s0,0,0,0v-.2a0,0,0,0,0,0,0s0,0,0,0a.93.93,0,0,1-.81.33,1.18,1.18,0,0,1-.75-.23.81.81,0,0,1-.29-.67.88.88,0,0,1,.32-.72,1.49,1.49,0,0,1,.93-.26h.61a0,0,0,0,0,0,0V121a.41.41,0,0,0-.12-.31.53.53,0,0,0-.36-.11.57.57,0,0,0-.31.07.31.31,0,0,0-.16.18s0,.07-.08.06l-.72-.09s-.07,0-.07-.06a.8.8,0,0,1,.2-.45,1.23,1.23,0,0,1,.47-.32,1.67,1.67,0,0,1,.65-.11A1.75,1.75,0,0,1,433.29,120Zm-.38,2.28a.43.43,0,0,0,.18-.36v-.21a0,0,0,0,0,0,0h-.43a.78.78,0,0,0-.43.1.33.33,0,0,0-.15.29.29.29,0,0,0,.12.25.4.4,0,0,0,.3.1A.72.72,0,0,0,432.91,122.28Z" fill="#393d4f"/><path d="M436.91,120.16a1.07,1.07,0,0,1,.3.8v2s0,0,0,0l-.05,0h-.7l-.05,0s0,0,0,0v-1.8a.56.56,0,0,0-.14-.39.44.44,0,0,0-.35-.15.46.46,0,0,0-.36.15.56.56,0,0,0-.13.39v1.8s0,0,0,0l-.05,0h-.7l-.05,0s0,0,0,0V120a.08.08,0,0,1,0,0,.05.05,0,0,1,.05,0h.7a.12.12,0,0,1,.08.08v.21s0,0,0,0h0a.82.82,0,0,1,.73-.34A1,1,0,0,1,436.91,120.16Z" fill="#393d4f"/><path d="M438.32,122.81a1.28,1.28,0,0,1-.5-.66,2.17,2.17,0,0,1-.1-.71,2.11,2.11,0,0,1,.1-.7,1.22,1.22,0,0,1,.5-.64,1.42,1.42,0,0,1,.83-.23,1.48,1.48,0,0,1,.84.24,1.18,1.18,0,0,1,.49.6.79.79,0,0,1,0,.22h0a.07.07,0,0,1-.06.07l-.69.1h0a.07.07,0,0,1-.07-.06l0-.1a.51.51,0,0,0-.18-.26.65.65,0,0,0-.35-.1.52.52,0,0,0-.51.36,1.63,1.63,0,0,0-.06.49,1.66,1.66,0,0,0,.06.5.51.51,0,0,0,.51.38.52.52,0,0,0,.33-.1.55.55,0,0,0,.2-.27v0s0,0,0,0,0-.06.08-.06l.69.11a.07.07,0,0,1,.06.07,1.05,1.05,0,0,1,0,.18,1.14,1.14,0,0,1-.49.63,1.58,1.58,0,0,1-.84.23A1.42,1.42,0,0,1,438.32,122.81Z" fill="#393d4f"/><path d="M443.73,121.65a.06.06,0,0,1-.07.07H441.8s0,0,0,0a1.05,1.05,0,0,0,.06.24.65.65,0,0,0,.64.34.74.74,0,0,0,.61-.32.05.05,0,0,1,.05,0l0,0,.43.43a.09.09,0,0,1,0,0,.06.06,0,0,1,0,0,1.32,1.32,0,0,1-.51.38,1.72,1.72,0,0,1-.68.14,1.54,1.54,0,0,1-.88-.24,1.23,1.23,0,0,1-.51-.65,2.13,2.13,0,0,1-.13-.79,1.72,1.72,0,0,1,.09-.58,1.41,1.41,0,0,1,.49-.68,1.48,1.48,0,0,1,1.78.1,1.51,1.51,0,0,1,.44.93A2.75,2.75,0,0,1,443.73,121.65Zm-1.92-.7s0,.11,0,.19a0,0,0,0,0,0,0h1s0,0,0,0l0-.17a.51.51,0,0,0-.19-.28.52.52,0,0,0-.33-.1A.49.49,0,0,0,441.81,121Z" fill="#393d4f"/><path d="M284,100.7l-9.48.29v-.19a9.42,9.42,0,0,1,9.27-9.41H284Z" fill="#8b8fa0"/><path d="M285.3,87.45h-2.78a.24.24,0,0,1,0-.48h2.78a.24.24,0,1,1,0,.48Z" fill="#393d4f"/><path d="M286.47,85.85h-5.12a.48.48,0,1,1,0-.95h5.12a.48.48,0,1,1,0,.95Z" fill="#393d4f"/><path d="M283.89,110.09a.24.24,0,0,1-.24-.24v-1.39a.24.24,0,0,1,.48,0v1.39A.24.24,0,0,1,283.89,110.09Zm-6.59-2.83a.23.23,0,0,1-.23-.23.24.24,0,0,1,.06-.17l.93-.92a.23.23,0,0,1,.33,0,.23.23,0,0,1,0,.31l-.92.93A.24.24,0,0,1,277.3,107.26ZM276,101.07h-1.4a.24.24,0,0,1,0-.48H276a.24.24,0,0,1,0,.48ZM289.7,95.2a.23.23,0,0,1-.24-.23.24.24,0,0,1,.07-.17l.92-.92a.25.25,0,0,1,.34,0,.24.24,0,0,1,0,.33h0l-.92.93A.27.27,0,0,1,289.7,95.2Zm-11.38,0a.27.27,0,0,1-.17-.06l-.92-.93a.24.24,0,0,1,0-.33.25.25,0,0,1,.34,0l.92.92a.25.25,0,0,1,0,.34h0A.27.27,0,0,1,278.32,95.2ZM284,93.1a.24.24,0,0,1-.24-.24V91.47a.24.24,0,0,1,.24-.24.23.23,0,0,1,.23.24v1.39a.23.23,0,0,1-.23.24Z" fill="#393d4f"/><path d="M290.43,107.26a.27.27,0,0,1-.17-.06l-.92-.93a.24.24,0,0,1,0-.33.25.25,0,0,1,.34,0l.92.92a.25.25,0,0,1,0,.34h0A.27.27,0,0,1,290.43,107.26Zm2.73-6.27h-1.39a.24.24,0,1,1,0-.47h1.39a.24.24,0,1,1,0,.47Z" fill="#393d4f"/><path d="M283.93,101.93a1.11,1.11,0,0,1-1.07-.83h-8.3a.27.27,0,1,1,0-.53h8.3a1.09,1.09,0,0,1,.81-.81h0V91.46a.27.27,0,0,1,.27-.27h0a.27.27,0,0,1,.27.27h0v8.29h0a1.1,1.1,0,0,1-.28,2.17Zm0-1.67a.57.57,0,0,0-.57.57.58.58,0,0,0,.57.57.57.57,0,0,0,.57-.57h0a.57.57,0,0,0-.57-.57Z" fill="#393d4f"/><path d="M283.94,112.54a11.91,11.91,0,1,1,11.92-11.91A11.91,11.91,0,0,1,283.94,112.54Zm0-22.88a11,11,0,1,0,11,11h0a11,11,0,0,0-11-11Z" fill="none" stroke="#393d4f" stroke-miterlimit="10"/><circle cx="283.95" cy="100.83" r="0.65" fill="#393d4f"/><path d="M426.57,110.66l-6.69-6.7,18-18,6.7,6.69-18,18Zm15.37-15.37-1.84-1.84m-3.26,6.93L435,98.54m4.34-.65-3.62-3.63m-1.54,8.79-1.84-1.84m-3.26,6.94-1.84-1.85m4.34-.65L428,102" fill="none" stroke="#393d4f" stroke-linecap="round" stroke-linejoin="round" stroke-width="0.75"/><path d="M358.39,93.23l.11.1a2.85,2.85,0,0,1-.69.61,1.78,1.78,0,0,1-.94.26,1.07,1.07,0,0,1-.57-.14.85.85,0,0,1-.37-.38,1.2,1.2,0,0,1-.12-.52,2.39,2.39,0,0,1,.32-1.16,2.56,2.56,0,0,1,.85-.91,1.92,1.92,0,0,1,1-.33.94.94,0,0,1,.62.18.62.62,0,0,1,.05.86.49.49,0,0,1-.35.17.41.41,0,0,1-.28-.11.36.36,0,0,1-.11-.26.41.41,0,0,1,.2-.33c.09-.07.13-.13.13-.18a.16.16,0,0,0,0-.11.36.36,0,0,0-.19,0,.85.85,0,0,0-.57.24,2.14,2.14,0,0,0-.54.82,2.63,2.63,0,0,0-.19,1,.84.84,0,0,0,.19.56.6.6,0,0,0,.46.21,1.25,1.25,0,0,0,.5-.12A1.41,1.41,0,0,0,358.39,93.23Z" fill="#393d4f"/><path d="M367.43,89.11h.1l2.09,5h-4.27Zm.89,4.73L367,90.76l-1.3,3.08Z" fill="#393d4f"/><path d="M365.74,105.18h-2.6v-.13a22.8,22.8,0,0,0,1.71-1.73,4.36,4.36,0,0,0,.74-1,1.72,1.72,0,0,0,.15-.69.69.69,0,0,0-.21-.53.7.7,0,0,0-.52-.21,1,1,0,0,0-.86.55l-.13-.06a2,2,0,0,1,.49-.81,1.39,1.39,0,0,1,1-.38,1.22,1.22,0,0,1,.86.32,1,1,0,0,1,.34.74,1.66,1.66,0,0,1-.17.74,3.68,3.68,0,0,1-.68.91c-.26.28-.8.76-1.61,1.45h.94a1.53,1.53,0,0,0,.64-.1,1,1,0,0,0,.34-.42h.17Z" fill="#393d4f"/><path d="M372.65,88.88l-.35,1.22h.7l-.07.28h-.7L371.45,93a2.61,2.61,0,0,0-.12.55.16.16,0,0,0,0,.11.12.12,0,0,0,.09,0,.58.58,0,0,0,.3-.15,7.25,7.25,0,0,0,.48-.55l.14.11a3.13,3.13,0,0,1-.78.85.88.88,0,0,1-.5.17.44.44,0,0,1-.33-.13.41.41,0,0,1-.12-.31,3.23,3.23,0,0,1,.14-.74l.75-2.6h-.68l0-.18a2.17,2.17,0,0,0,.82-.4,3.9,3.9,0,0,0,.73-.92Z" fill="#393d4f"/><path d="M361.14,92.77l1.29-1.29-1.29-1.29.22-.21,1.29,1.29L363.93,90l.21.21-1.29,1.29,1.3,1.29-.21.22-1.3-1.3L361.35,93Z" fill="#231f20"/><path d="M344.88,94.6l-1.17,4a2.71,2.71,0,0,0-.12.46.09.09,0,0,0,0,.07.09.09,0,0,0,.06,0,.26.26,0,0,0,.15-.06,2.19,2.19,0,0,0,.32-.39l.13.07c-.34.59-.71.89-1.12.89a.49.49,0,0,1-.33-.11.4.4,0,0,1-.12-.29,1.62,1.62,0,0,1,.1-.49l.1-.36a3.92,3.92,0,0,1-.78,1.06.87.87,0,0,1-.49.19.55.55,0,0,1-.45-.22.94.94,0,0,1-.19-.64,2.52,2.52,0,0,1,.24-1.06,3.33,3.33,0,0,1,.55-.87,2,2,0,0,1,.59-.5,1.21,1.21,0,0,1,.56-.15.66.66,0,0,1,.25,0,1.15,1.15,0,0,1,.25.22l.27-.9a2.12,2.12,0,0,0,.09-.47.2.2,0,0,0-.06-.15.24.24,0,0,0-.17-.06h-.13l0-.14,1.18-.22Zm-1.59,2.28a.56.56,0,0,0-.08-.32.3.3,0,0,0-.21-.1.41.41,0,0,0-.25.12,2.73,2.73,0,0,0-.53.93,3.2,3.2,0,0,0-.28,1.17.45.45,0,0,0,.06.26.19.19,0,0,0,.14.08.4.4,0,0,0,.25-.11,3,3,0,0,0,.61-1A2.91,2.91,0,0,0,343.29,96.88Z" fill="#393d4f"/><path d="M346.68,96.34h3.94v.47h-3.94Zm0,1.18h3.94V98h-3.94Z" fill="#393d4f"/><line x1="354.39" y1="97.22" x2="376.13" y2="97.22" fill="none" stroke="#393d4f" stroke-width="0.62"/></g></g></g></svg>